<svg id="eITYlAO1RiM1" xmlns="http://www.w3.org/2000/svg" xmlns:xlink="http://www.w3.org/1999/xlink"
    viewBox="0 0 400 400" shape-rendering="geometricPrecision" text-rendering="geometricPrecision"
    project-id="c6ba5860639f49f49c6e84f495311770" export-id="ed816d7930a943c298fcf4fff8d80d13"
    cached="false">
    <g transform="matrix(2.016455 0 0 2.137489-638.025571-669.88105)">
        <g transform="matrix(1.03202 0 0 1.03202 160.489 376.829)">
            <g>
                <g transform="translate(89.089464-53.200003)">
                    <path d="M156.5,29.8v126.9h-8.1v-126.9c0-2.2,1.8-4,4-4c2.3,0,4.1,1.8,4.1,4Z"
                        fill="#ffffff" />
                    <path
                        d="M174.3,53c-5.9,0-10.7,4.8-10.7,10.7c0,4.5,2.8,8.3,6.6,9.9v83.1h8.1v-83.1c3.9-1.6,6.6-5.4,6.6-9.9.1-5.9-4.7-10.7-10.6-10.7Zm0,13.3c-1.4,0-2.6-1.2-2.6-2.6s1.2-2.6,2.6-2.6s2.6,1.2,2.6,2.6c0,1.5-1.2,2.6-2.6,2.6Z"
                        fill="#ffffff" />
                    <path d="M200.2,94.9v61.8h-8.1v-61.8c0-2.2,1.8-4,4-4c2.3-.1,4.1,1.8,4.1,4Z"
                        fill="#ffffff" />
                    <path d="M200.2,94.9v61.8h-8.1v-61.8c0-2.2,1.8-4,4-4c2.3-.1,4.1,1.8,4.1,4Z"
                        fill="#ffffff" />
                    <path
                        d="M130.6,0c-8,0-14.6,6.6-14.6,14.6c0,6.6,4.5,12.3,10.6,14v136.2h8.1v-136.2c6.1-1.8,10.6-7.4,10.6-14-.1-8-6.6-14.6-14.7-14.6Zm0,21.1c-3.6,0-6.5-2.9-6.5-6.5s2.9-6.5,6.5-6.5s6.5,2.9,6.5,6.5-2.9,6.5-6.5,6.5Z"
                        transform="matrix(1 0 0 0.901699 0 8.100003)" fill="#ffffff" />
                </g>
            </g>
        </g>
    </g>
</svg>