<svg id="final_svg" viewBox="160.48854064941406 376.828857421875 752.699462890625 325.08740234375" xmlns="http://www.w3.org/2000/svg" xmlns:xlink="http://www.w3.org/1999/xlink" xml:space="preserve">
      <g id="png_group" transform="translate(160.48853599999998, 376.82887000000005) scale(1.0320235831114495)" opacity="1">
      <g height="325.0874286801066" width="271.3190000000001" transform="rotate(0)">
                  <style type="text/css">.st0{fill:#56C1C1;}	.st1{fill:#2BAAA7;}	.st2{fill:#227A78;}	.st3{fill:#75CFD3;}</style>
          <g id="color_index_3" fill="rgba(204, 148, 68, 1)">
                          <path d="M231,173.1h-97c-2.2,0-4,1.8-4,4c0,2.2,1.8,4,4,4h97c2.2,0,4-1.8,4-4C235.1,175,233.3,173.1,231,173.1z"></path>
              <path d="M182.2,206H134c-2.2,0-4,1.8-4,4c0,2.2,1.8,4,4,4h48.1c2.2,0,4-1.8,4-4C186.2,207.8,184.4,206,182.2,206z"></path>
              <path d="M251.4,149.3c-4.9,0-9.1,3.1-10.8,7.5H134c-2.2,0-4,1.8-4,4c0,2.2,1.8,4,4,4h106.6c1.6,4.4,5.8,7.5,10.8,7.5		c6.4,0,11.5-5.2,11.5-11.5C262.9,154.4,257.8,149.3,251.4,149.3z M251.4,164.2c-1.9,0-3.4-1.5-3.4-3.4c0-1.9,1.5-3.4,3.4-3.4		c1.9,0,3.4,1.5,3.4,3.4C254.8,162.7,253.3,164.2,251.4,164.2z"></path>
              <path d="M205.2,184.8c-3.4,0-6.4,1.9-7.9,4.8H134c-2.2,0-4,1.8-4,4c0,2.2,1.8,4,4,4h63.1c1.5,3,4.5,5,8,5		c4.9,0,8.9-4,8.9-8.9C214.1,188.8,210.1,184.8,205.2,184.8z"></path>
                      </g>
          <g id="color_index_1" fill="rgba(215, 171, 108, 1)">
                          <path d="M130.6,158.1c-2.2,0-4,1.8-4,4V311c0,2.2,1.8,4,4,4s4-1.8,4-4V162.1C134.6,159.9,132.8,158.1,130.6,158.1z"></path>
              <path d="M108.8,158.1c-2.2,0-4,1.8-4,4v129.6c0,2.2,1.8,4,4,4s4-1.8,4-4V162.1C112.8,159.9,111,158.1,108.8,158.1z"></path>
              <path d="M65.1,158.1c-2.2,0-4,1.8-4,4v64.5c0,2.2,1.8,4,4,4c2.2,0,4-1.8,4-4v-64.5C69.1,159.9,67.3,158.1,65.1,158.1z"></path>
              <path d="M91,247.2v-85c0-2.2-1.8-4-4-4s-4,1.8-4,4v85c-3.9,1.6-6.7,5.4-6.7,9.9c0,5.9,4.8,10.7,10.7,10.7		s10.7-4.8,10.7-10.7C97.6,252.6,94.9,248.8,91,247.2z M86.9,259.7c-1.4,0-2.6-1.2-2.6-2.6c0-1.4,1.2-2.6,2.6-2.6s2.6,1.2,2.6,2.6		C89.5,258.5,88.3,259.7,86.9,259.7z"></path>
                      </g>
          <g id="color_index_0" fill="rgba(204, 148, 68, 1)">
                          <path d="M129.3,156.7h-107c-1.6-4.4-5.8-7.5-10.8-7.5c-6.3,0-11.5,5.2-11.5,11.5c0,6.3,5.2,11.5,11.5,11.5		c4.9,0,9.1-3.1,10.8-7.5h107c2.2,0,4-1.8,4-4C133.3,158.5,131.5,156.7,129.3,156.7z M11.5,164.2c-1.9,0-3.4-1.5-3.4-3.4		c0-1.9,1.5-3.4,3.4-3.4c1.9,0,3.4,1.5,3.4,3.4C14.9,162.7,13.4,164.2,11.5,164.2z"></path>
              <path d="M129.3,140.3h-97c-2.2,0-4,1.8-4,4s1.8,4,4,4h97c2.2,0,4-1.8,4-4S131.5,140.3,129.3,140.3z"></path>
              <path d="M129.3,123.9H63.1c-1.5-3-4.5-5-8-5c-4.9,0-8.9,4-8.9,8.9s4,8.9,8.9,8.9c3.4,0,6.4-1.9,7.9-4.8h66.3		c2.2,0,4-1.8,4-4S131.5,123.9,129.3,123.9z"></path>
              <path d="M81.1,115.6h48.1c2.2,0,4-1.8,4-4s-1.8-4-4-4H81.1c-2.2,0-4,1.8-4,4S78.9,115.6,81.1,115.6z"></path>
                      </g>
          <g id="color_index_2" fill="rgba(215, 171, 108, 1)">
                          <path d="M156.5,29.8v126.9h-8.1V29.8c0-2.2,1.8-4,4-4C154.7,25.8,156.5,27.6,156.5,29.8z"></path>
              <path d="M174.3,53c-5.9,0-10.7,4.8-10.7,10.7c0,4.5,2.8,8.3,6.6,9.9v83.1h8.1V73.6c3.9-1.6,6.6-5.4,6.6-9.9		C185,57.8,180.2,53,174.3,53z M174.3,66.3c-1.4,0-2.6-1.2-2.6-2.6c0-1.4,1.2-2.6,2.6-2.6c1.4,0,2.6,1.2,2.6,2.6		C176.9,65.2,175.7,66.3,174.3,66.3z"></path>
              <path d="M200.2,94.9v61.8h-8.1V94.9c0-2.2,1.8-4,4-4C198.4,90.8,200.2,92.7,200.2,94.9z"></path>
              <path d="M130.6,0C122.6,0,116,6.6,116,14.6c0,6.6,4.5,12.3,10.6,14v136.2h8.1V28.6c6.1-1.8,10.6-7.4,10.6-14		C145.2,6.6,138.7,0,130.6,0z M130.6,21.1c-3.6,0-6.5-2.9-6.5-6.5c0-3.6,2.9-6.5,6.5-6.5c3.6,0,6.5,2.9,6.5,6.5		C137.1,18.2,134.2,21.1,130.6,21.1z"></path>
                      </g>
              </g>
    </g>
    <g id="text_group" transform="rotate(0)" opacity="1">
      <g id="text_layer_1_0" fill="rgba(215, 171, 108, 1)" transform="translate(459.087536, 453.934428984375)">
                  <path d="M62.55 4.43L62.55 66.18L45.91 66.18L19.05 19.47L18.67 19.47Q19.47 31.85 19.47 37.13L19.47 37.13L19.47 66.18L7.77 66.18L7.77 4.43L24.29 4.43L51.11 50.68L51.40 50.68Q50.77 38.65 50.77 33.66L50.77 33.66L50.77 4.43L62.55 4.43ZM120.41 66.18L110.53 66.18L108.80 60.14L108.12 60.14Q106.05 63.44 102.25 65.23Q98.45 67.03 93.59 67.03L93.59 67.03Q85.27 67.03 81.05 62.57Q76.83 58.12 76.83 49.75L76.83 49.75L76.83 18.96L89.71 18.96L89.71 46.54Q89.71 51.65 91.52 54.21Q93.34 56.76 97.31 56.76L97.31 56.76Q102.72 56.76 105.12 53.15Q107.53 49.54 107.53 41.18L107.53 41.18L107.53 18.96L120.41 18.96L120.41 66.18ZM166.87 52.16L166.87 52.16Q166.87 59.43 161.83 63.23Q156.78 67.03 146.73 67.03L146.73 67.03Q141.57 67.03 137.94 66.33Q134.31 65.63 131.14 64.28L131.14 64.28L131.14 53.64Q134.73 55.33 139.23 56.47Q143.73 57.61 147.15 57.61L147.15 57.61Q154.16 57.61 154.16 53.55L154.16 53.55Q154.16 52.03 153.23 51.08Q152.30 50.13 150.02 48.93Q147.74 47.73 143.94 46.12L143.94 46.12Q138.49 43.84 135.94 41.90Q133.38 39.96 132.22 37.44Q131.06 34.93 131.06 31.25L131.06 31.25Q131.06 24.96 135.94 21.52Q140.81 18.08 149.77 18.08L149.77 18.08Q158.30 18.08 166.37 21.79L166.37 21.79L162.48 31.09Q158.93 29.57 155.85 28.59Q152.77 27.62 149.56 27.62L149.56 27.62Q143.85 27.62 143.85 30.71L143.85 30.71Q143.85 32.44 145.69 33.70Q147.53 34.97 153.74 37.46L153.74 37.46Q159.27 39.70 161.85 41.64Q164.42 43.59 165.65 46.12Q166.87 48.66 166.87 52.16ZM215.91 66.18L206.91 66.18L204.42 59.76L204.08 59.76Q200.83 63.86 197.39 65.44Q193.95 67.03 188.41 67.03L188.41 67.03Q181.61 67.03 177.71 63.14Q173.80 59.26 173.80 52.08L173.80 52.08Q173.80 44.56 179.06 40.99Q184.32 37.42 194.92 37.04L194.92 37.04L203.11 36.79L203.11 34.72Q203.11 27.54 195.76 27.54L195.76 27.54Q190.10 27.54 182.46 30.96L182.46 30.96L178.19 22.26Q186.34 17.99 196.27 17.99L196.27 17.99Q205.77 17.99 210.84 22.13Q215.91 26.27 215.91 34.72L215.91 34.72L215.91 66.18ZM203.11 48.19L203.11 44.31L198.13 44.47Q192.51 44.64 189.77 46.50Q187.02 48.36 187.02 52.16L187.02 52.16Q187.02 57.61 193.27 57.61L193.27 57.61Q197.75 57.61 200.43 55.03Q203.11 52.46 203.11 48.19L203.11 48.19ZM272.76 35.39L272.76 66.18L259.88 66.18L259.88 38.60Q259.88 33.49 258.06 30.94Q256.24 28.38 252.27 28.38L252.27 28.38Q246.87 28.38 244.46 31.99Q242.05 35.60 242.05 43.97L242.05 43.97L242.05 66.18L229.17 66.18L229.17 18.96L239.01 18.96L240.74 25.00L241.46 25.00Q243.62 21.58 247.40 19.83Q251.18 18.08 255.99 18.08L255.99 18.08Q264.23 18.08 268.49 22.53Q272.76 26.99 272.76 35.39L272.76 35.39ZM305.91 56.76L305.91 56.76Q309.29 56.76 314.02 55.29L314.02 55.29L314.02 64.87Q309.21 67.03 302.20 67.03L302.20 67.03Q294.47 67.03 290.94 63.12Q287.41 59.21 287.41 51.40L287.41 51.40L287.41 28.64L281.25 28.64L281.25 23.19L288.34 18.88L292.06 8.91L300.30 8.91L300.30 18.96L313.52 18.96L313.52 28.64L300.30 28.64L300.30 51.40Q300.30 54.15 301.84 55.46Q303.38 56.76 305.91 56.76ZM362.55 66.18L353.56 66.18L351.06 59.76L350.73 59.76Q347.47 63.86 344.03 65.44Q340.59 67.03 335.06 67.03L335.06 67.03Q328.26 67.03 324.35 63.14Q320.44 59.26 320.44 52.08L320.44 52.08Q320.44 44.56 325.70 40.99Q330.96 37.42 341.56 37.04L341.56 37.04L349.75 36.79L349.75 34.72Q349.75 27.54 342.41 27.54L342.41 27.54Q336.75 27.54 329.10 30.96L329.10 30.96L324.84 22.26Q332.99 17.99 342.91 17.99L342.91 17.99Q352.42 17.99 357.48 22.13Q362.55 26.27 362.55 34.72L362.55 34.72L362.55 66.18ZM349.75 48.19L349.75 44.31L344.77 44.47Q339.15 44.64 336.41 46.50Q333.66 48.36 333.66 52.16L333.66 52.16Q333.66 57.61 339.91 57.61L339.91 57.61Q344.39 57.61 347.07 55.03Q349.75 52.46 349.75 48.19L349.75 48.19ZM402.17 18.08L402.17 18.08Q404.79 18.08 406.52 18.46L406.52 18.46L405.55 30.54Q403.98 30.11 401.75 30.11L401.75 30.11Q395.58 30.11 392.14 33.28Q388.70 36.45 388.70 42.15L388.70 42.15L388.70 66.18L375.81 66.18L375.81 18.96L385.57 18.96L387.47 26.90L388.10 26.90Q390.30 22.93 394.04 20.51Q397.78 18.08 402.17 18.08ZM452.34 66.18L443.35 66.18L440.86 59.76L440.52 59.76Q437.27 63.86 433.82 65.44Q430.38 67.03 424.85 67.03L424.85 67.03Q418.05 67.03 414.14 63.14Q410.24 59.26 410.24 52.08L410.24 52.08Q410.24 44.56 415.49 40.99Q420.75 37.42 431.35 37.04L431.35 37.04L439.55 36.79L439.55 34.72Q439.55 27.54 432.20 27.54L432.20 27.54Q426.54 27.54 418.89 30.96L418.89 30.96L414.63 22.26Q422.78 17.99 432.71 17.99L432.71 17.99Q442.21 17.99 447.28 22.13Q452.34 26.27 452.34 34.72L452.34 34.72L452.34 66.18ZM439.55 48.19L439.55 44.31L434.56 44.47Q428.95 44.64 426.20 46.50Q423.46 48.36 423.46 52.16L423.46 52.16Q423.46 57.61 429.71 57.61L429.71 57.61Q434.18 57.61 436.87 55.03Q439.55 52.46 439.55 48.19L439.55 48.19Z"></path>
              </g>
    </g>
    <g id="tagline_group" transform="rotate(0)" opacity="1">
      <g id="text_layer_2_0" fill="rgba(215, 171, 108, 1)" transform="translate(462.088, 570.1016818359375)">
                  <path d="M28.91 17.37L28.91 17.37Q28.91 25.02 24.76 29.07Q20.60 33.11 12.81 33.11L12.81 33.11L4.25 33.11L4.25 2.22L13.71 2.22Q20.92 2.22 24.91 6.21Q28.91 10.21 28.91 17.37ZM25.10 17.50L25.10 17.50Q25.10 11.45 22.07 8.39Q19.04 5.33 13.06 5.33L13.06 5.33L7.84 5.33L7.84 30.01L12.21 30.01Q18.64 30.01 21.87 26.85Q25.10 23.69 25.10 17.50ZM50.89 9.95L50.89 33.11L47.39 33.11L47.39 9.95L50.89 9.95ZM47.09 3.68L47.09 3.68Q47.09 2.47 47.68 1.91Q48.27 1.35 49.16 1.35L49.16 1.35Q50.01 1.35 50.62 1.92Q51.23 2.49 51.23 3.68L51.23 3.68Q51.23 4.86 50.62 5.44Q50.01 6.02 49.16 6.02L49.16 6.02Q48.27 6.02 47.68 5.44Q47.09 4.86 47.09 3.68ZM81.40 9.95L89.41 9.95L89.41 12.17L85.12 12.68Q85.71 13.42 86.17 14.61Q86.64 15.81 86.64 17.31L86.64 17.31Q86.64 20.71 84.31 22.74Q81.99 24.77 77.93 24.77L77.93 24.77Q76.90 24.77 75.99 24.60L75.99 24.60Q73.75 25.78 73.75 27.58L73.75 27.58Q73.75 28.53 74.53 28.98Q75.31 29.44 77.21 29.44L77.21 29.44L81.31 29.44Q85.07 29.44 87.09 31.02Q89.11 32.61 89.11 35.63L89.11 35.63Q89.11 39.47 86.02 41.49Q82.94 43.51 77.02 43.51L77.02 43.51Q72.48 43.51 70.02 41.82Q67.56 40.13 67.56 37.04L67.56 37.04Q67.56 34.93 68.91 33.39Q70.26 31.85 72.71 31.30L72.71 31.30Q71.82 30.89 71.22 30.05Q70.62 29.20 70.62 28.08L70.62 28.08Q70.62 26.82 71.30 25.87Q71.97 24.91 73.43 24.03L73.43 24.03Q71.63 23.29 70.50 21.51Q69.37 19.74 69.37 17.45L69.37 17.45Q69.37 13.65 71.65 11.59Q73.94 9.53 78.12 9.53L78.12 9.53Q79.94 9.53 81.40 9.95L81.40 9.95ZM70.94 37.00L70.94 37.00Q70.94 38.88 72.52 39.85Q74.11 40.83 77.06 40.83L77.06 40.83Q81.48 40.83 83.60 39.51Q85.73 38.18 85.73 35.92L85.73 35.92Q85.73 34.04 84.57 33.31Q83.40 32.58 80.19 32.58L80.19 32.58L75.99 32.58Q73.60 32.58 72.27 33.73Q70.94 34.87 70.94 37.00ZM72.84 17.37L72.84 17.37Q72.84 19.80 74.21 21.05Q75.58 22.29 78.04 22.29L78.04 22.29Q83.17 22.29 83.17 17.31L83.17 17.31Q83.17 12.09 77.97 12.09L77.97 12.09Q75.50 12.09 74.17 13.42Q72.84 14.75 72.84 17.37ZM109.79 9.95L109.79 33.11L106.28 33.11L106.28 9.95L109.79 9.95ZM105.98 3.68L105.98 3.68Q105.98 2.47 106.57 1.91Q107.16 1.35 108.05 1.35L108.05 1.35Q108.90 1.35 109.51 1.92Q110.12 2.49 110.12 3.68L110.12 3.68Q110.12 4.86 109.51 5.44Q108.90 6.02 108.05 6.02L108.05 6.02Q107.16 6.02 106.57 5.44Q105.98 4.86 105.98 3.68ZM136.82 30.64L136.82 30.64Q137.75 30.64 138.62 30.50Q139.48 30.37 139.99 30.22L139.99 30.22L139.99 32.90Q139.42 33.18 138.31 33.36Q137.20 33.54 136.31 33.54L136.31 33.54Q129.59 33.54 129.59 26.46L129.59 26.46L129.59 12.68L126.28 12.68L126.28 10.99L129.59 9.53L131.07 4.59L133.10 4.59L133.10 9.95L139.82 9.95L139.82 12.68L133.10 12.68L133.10 26.31Q133.10 28.40 134.10 29.52Q135.09 30.64 136.82 30.64ZM173.58 33.11L170.98 33.11L170.28 29.82L170.11 29.82Q168.38 31.99 166.66 32.76Q164.94 33.54 162.36 33.54L162.36 33.54Q158.91 33.54 156.96 31.76Q155.00 29.99 155.00 26.71L155.00 26.71Q155.00 19.69 166.22 19.36L166.22 19.36L170.16 19.23L170.16 17.79Q170.16 15.07 168.98 13.77Q167.81 12.47 165.23 12.47L165.23 12.47Q162.34 12.47 158.68 14.24L158.68 14.24L157.60 11.56Q159.31 10.63 161.35 10.10Q163.39 9.57 165.44 9.57L165.44 9.57Q169.58 9.57 171.58 11.41Q173.58 13.25 173.58 17.31L173.58 17.31L173.58 33.11ZM163.06 30.64L163.06 30.64Q166.33 30.64 168.20 28.84Q170.07 27.05 170.07 23.82L170.07 23.82L170.07 21.72L166.56 21.87Q162.38 22.02 160.53 23.17Q158.68 24.32 158.68 26.75L158.68 26.75Q158.68 28.65 159.83 29.65Q160.98 30.64 163.06 30.64ZM196.43 0.23L196.43 33.11L192.92 33.11L192.92 0.23L196.43 0.23ZM257.31 24.89L257.31 24.89Q257.31 28.97 254.35 31.25Q251.39 33.54 246.32 33.54L246.32 33.54Q240.83 33.54 237.87 32.12L237.87 32.12L237.87 28.65Q239.77 29.46 242.01 29.92Q244.25 30.39 246.45 30.39L246.45 30.39Q250.04 30.39 251.86 29.02Q253.67 27.66 253.67 25.23L253.67 25.23Q253.67 23.63 253.03 22.60Q252.39 21.58 250.87 20.71Q249.36 19.84 246.28 18.74L246.28 18.74Q241.97 17.20 240.12 15.09Q238.27 12.97 238.27 9.57L238.27 9.57Q238.27 6.00 240.95 3.89Q243.64 1.78 248.05 1.78L248.05 1.78Q252.66 1.78 256.53 3.47L256.53 3.47L255.41 6.59Q251.58 4.99 247.97 4.99L247.97 4.99Q245.12 4.99 243.51 6.21Q241.90 7.44 241.90 9.61L241.90 9.61Q241.90 11.22 242.50 12.25Q243.09 13.27 244.49 14.13Q245.90 14.98 248.79 16.02L248.79 16.02Q253.65 17.75 255.48 19.74Q257.31 21.72 257.31 24.89ZM295.21 21.51L295.21 21.51Q295.21 27.18 292.35 30.36Q289.50 33.54 284.47 33.54L284.47 33.54Q281.37 33.54 278.96 32.08Q276.55 30.62 275.24 27.89Q273.93 25.17 273.93 21.51L273.93 21.51Q273.93 15.85 276.76 12.69Q279.59 9.53 284.62 9.53L284.62 9.53Q289.48 9.53 292.34 12.76Q295.21 16.00 295.21 21.51ZM277.56 21.51L277.56 21.51Q277.56 25.95 279.34 28.27Q281.11 30.60 284.56 30.60L284.56 30.60Q288.00 30.60 289.79 28.28Q291.57 25.97 291.57 21.51L291.57 21.51Q291.57 17.10 289.79 14.80Q288.00 12.51 284.51 12.51L284.51 12.51Q281.07 12.51 279.32 14.77Q277.56 17.03 277.56 21.51ZM322.73 33.54L322.73 33.54Q317.70 33.54 314.94 30.44Q312.18 27.34 312.18 21.68L312.18 21.68Q312.18 15.87 314.98 12.70Q317.78 9.53 322.96 9.53L322.96 9.53Q324.63 9.53 326.30 9.89Q327.97 10.25 328.92 10.73L328.92 10.73L327.84 13.71Q326.68 13.25 325.31 12.94Q323.93 12.64 322.88 12.64L322.88 12.64Q315.82 12.64 315.82 21.64L315.82 21.64Q315.82 25.91 317.54 28.19Q319.26 30.47 322.64 30.47L322.64 30.47Q325.54 30.47 328.58 29.22L328.58 29.22L328.58 32.33Q326.26 33.54 322.73 33.54ZM349.70 9.95L349.70 33.11L346.19 33.11L346.19 9.95L349.70 9.95ZM345.90 3.68L345.90 3.68Q345.90 2.47 346.49 1.91Q347.08 1.35 347.97 1.35L347.97 1.35Q348.81 1.35 349.43 1.92Q350.04 2.49 350.04 3.68L350.04 3.68Q350.04 4.86 349.43 5.44Q348.81 6.02 347.97 6.02L347.97 6.02Q347.08 6.02 346.49 5.44Q345.90 4.86 345.90 3.68ZM379.04 33.54L379.04 33.54Q373.91 33.54 370.94 30.41Q367.97 27.28 367.97 21.72L367.97 21.72Q367.97 16.12 370.73 12.83Q373.48 9.53 378.13 9.53L378.13 9.53Q382.49 9.53 385.02 12.39Q387.56 15.26 387.56 19.95L387.56 19.95L387.56 22.17L371.60 22.17Q371.71 26.25 373.66 28.36Q375.62 30.47 379.17 30.47L379.17 30.47Q382.91 30.47 386.57 28.91L386.57 28.91L386.57 32.04Q384.71 32.84 383.05 33.19Q381.39 33.54 379.04 33.54ZM378.09 12.47L378.09 12.47Q375.30 12.47 373.64 14.28Q371.98 16.10 371.69 19.31L371.69 19.31L383.80 19.31Q383.80 16.00 382.32 14.23Q380.84 12.47 378.09 12.47ZM413.14 30.64L413.14 30.64Q414.07 30.64 414.93 30.50Q415.80 30.37 416.31 30.22L416.31 30.22L416.31 32.90Q415.74 33.18 414.63 33.36Q413.52 33.54 412.63 33.54L412.63 33.54Q405.91 33.54 405.91 26.46L405.91 26.46L405.91 12.68L402.59 12.68L402.59 10.99L405.91 9.53L407.39 4.59L409.42 4.59L409.42 9.95L416.14 9.95L416.14 12.68L409.42 12.68L409.42 26.31Q409.42 28.40 410.41 29.52Q411.40 30.64 413.14 30.64ZM438.72 33.24L429.38 9.95L433.14 9.95L438.21 23.16Q439.88 27.68 440.28 29.69L440.28 29.69L440.45 29.69Q440.72 28.61 441.60 26.00Q442.48 23.39 447.34 9.95L447.34 9.95L451.10 9.95L441.15 36.33Q439.67 40.23 437.69 41.87Q435.71 43.51 432.84 43.51L432.84 43.51Q431.23 43.51 429.67 43.15L429.67 43.15L429.67 40.34Q430.83 40.59 432.27 40.59L432.27 40.59Q435.88 40.59 437.43 36.54L437.43 36.54L438.72 33.24Z"></path>
              </g>
    </g>
  </svg>